<svg>
  <symbol id="icon-user" viewBox="0 0 24 24">
    <path d="M12,12A6,6,0,1,0,6,6,6.006,6.006,0,0,0,12,12ZM12,2A4,4,0,1,1,8,6,4,4,0,0,1,12,2Z"/>
    <path d="M12,14a9.01,9.01,0,0,0-9,9,1,1,0,0,0,2,0,7,7,0,0,1,14,0,1,1,0,0,0,2,0A9.01,9.01,0,0,0,12,14Z"/>
  </symbol>

  <symbol id="chevron-left" viewBox="0 0 24 24" stroke-width="1.5" stroke="currentColor" class="size-6">
    <path stroke-linecap="round" stroke-linejoin="round" d="M15.75 19.5 8.25 12l7.5-7.5" />
  </symbol>

  <symbol id="chevron-right" viewBox="0 0 24 24" stroke-width="1.5" stroke="currentColor" class="size-6">
    <path stroke-linecap="round" stroke-linejoin="round" d="m8.25 4.5 7.5 7.5-7.5 7.5" />
  </symbol>
</svg>